<svg id="visual" viewBox="0 0 900 600" width="900" height="600" xmlns="http://www.w3.org/2000/svg" xmlns:xlink="http://www.w3.org/1999/xlink" version="1.1"><rect x="0" y="0" width="900" height="600" fill="#4BF2F2"></rect><defs><linearGradient id="grad1_0" x1="33.3%" y1="0%" x2="100%" y2="100%"><stop offset="20%" stop-color="#4bf2f2" stop-opacity="1"></stop><stop offset="80%" stop-color="#4bf2f2" stop-opacity="1"></stop></linearGradient></defs><defs><linearGradient id="grad2_0" x1="0%" y1="0%" x2="66.7%" y2="100%"><stop offset="20%" stop-color="#4bf2f2" stop-opacity="1"></stop><stop offset="80%" stop-color="#4bf2f2" stop-opacity="1"></stop></linearGradient></defs><g transform="translate(900, 0)"><path d="M0 540.8C-97.7 528.5 -195.4 516.1 -270.4 468.4C-345.4 420.6 -397.8 337.5 -439.1 253.5C-480.4 169.5 -510.6 84.8 -540.8 0L0 0Z" fill="#fff"></path></g><g transform="translate(0, 600)"><path d="M0 -540.8C62.4 -471.8 124.7 -402.8 211.5 -366.3C298.3 -329.9 409.4 -326 468.4 -270.4C527.3 -214.8 534.1 -107.4 540.8 0L0 0Z" fill="#fff"></path></g></svg>